<svg xmlns="http://www.w3.org/2000/svg" width="772.77" height="754.79" viewBox="0 0 2152.75 2102.68" shape-rendering="geometricPrecision" text-rendering="geometricPrecision" image-rendering="optimizeQuality" fill-rule="evenodd" clip-rule="evenodd"><defs><style>.fil7{fill:#494f57}.fil2{fill:#535860}.fil1{fill:#5c626b}.fil4{fill:#c9caca}.fil8{fill:#cb556a}.fil3{fill:#dfe0e0}.fil9{fill:#e15f76}.fil6{fill:#e7ce5f}.fil5{fill:#fbe067}</style></defs><g id="Layer_x0020_1"><g id="_3002053335856"><path d="M914.24 0L420.95 427.78 0 1183.35h379.55L914.25 0zm65.62 100.09L769.33 693.47l403.66 507.16-783.1 134.55h1283.44L979.86 100.08z" fill="#0072c6"/><path class="fil1" d="M1125.25 1614.36l-84.25 84.25-158.72-158.72c-23.14-23.14-23.14-60.82 0-84.25 23.14-23.14 60.82-23.14 84.25 0l158.72 158.72z"/><path class="fil2" d="M909.27 1440.22a59.56 59.56 0 00-26.7 15.43c-23.14 23.14-23.14 60.82 0 84.25l158.72 158.72 42.13-42.13-158.72-158.72c-15.72-15.42-20.77-37.68-15.43-57.55z"/><path class="fil3" d="M1040.99 1698.61l84.26-84.25 229.32 229.33-84.25 84.25z"/><path class="fil4" d="M1040.99 1698.61l42.13-42.12 229.32 229.32-42.12 42.13z"/><path class="fil5" d="M1198.82 1614.66l-157.53 157.53a12.53 12.53 0 01-17.5 0l-56.37-56.37a12.53 12.53 0 010-17.5l157.53-157.53a12.53 12.53 0 0117.5 0l56.37 56.37a12.53 12.53 0 010 17.5z"/><path class="fil6" d="M1081.93 1714.34l-56.37-56.37a12.53 12.53 0 010-17.5l-57.85 57.85a12.53 12.53 0 000 17.5l56.37 56.37a12.53 12.53 0 0017.5 0l57.85-57.85c-5.04 4.75-12.76 4.75-17.5 0z"/><path class="fil1" d="M1892.43 1614.36l84.25 84.25 158.72-158.72c23.14-23.14 23.14-60.82 0-84.25-23.14-23.14-60.82-23.14-84.25 0l-158.72 158.72z"/><path class="fil2" d="M2108.4 1440.22a59.56 59.56 0 0126.7 15.43c23.14 23.14 23.14 60.82 0 84.25l-158.72 158.72-42.13-42.13 158.72-158.72c15.72-15.42 20.77-37.68 15.43-57.55z"/><path class="fil3" d="M1747.06 1927.94l-83.96-84.25 229.33-229.33 84.25 84.26z"/><path class="fil4" d="M1704.93 1885.81l229.33-229.32 42.12 42.13-229.32 229.32z"/><path class="fil5" d="M1818.86 1614.66l157.53 157.53a12.53 12.53 0 0017.5 0l56.37-56.37a12.53 12.53 0 000-17.5l-157.53-157.53a12.53 12.53 0 00-17.5 0l-56.37 56.37a12.53 12.53 0 000 17.5z"/><path class="fil6" d="M1935.74 1714.34l56.37-56.37a12.53 12.53 0 000-17.5l57.85 57.85a12.53 12.53 0 010 17.5l-56.37 56.37a12.53 12.53 0 01-17.5 0l-57.85-57.85c5.04 4.75 12.76 4.75 17.5 0z"/><path class="fil7" d="M1054.64 2102.68c0-250.98 203.22-454.2 454.2-454.2s454.2 203.51 454.2 454.2h-908.4z"/><path class="fil2" d="M1963.03 2102.68h-747.01l432.24-432.54c182.45 59.04 314.76 230.21 314.76 432.54z"/><path class="fil8" d="M1367.03 2102.68h-151l432.24-432.24a465.94 465.94 0 01102.94 48.06l-384.18 384.18z"/><path class="fil1" d="M1054.64 2102.68h747.01l-432.24-432.54c-182.45 59.04-314.76 230.21-314.76 432.54z"/><path class="fil2" d="M1551.56 1650.56a500.91 500.91 0 00-42.72-2.08c-250.98 0-454.2 203.51-454.2 454.2h85.44c-.3-236.44 180.67-430.76 411.48-452.12z"/><path class="fil9" d="M1650.64 2102.68h151l-432.24-432.54a465.94 465.94 0 00-102.94 48.06l384.18 384.48z"/><path class="fil8" d="M1394.03 1694.76l-24.62-24.62a465.94 465.94 0 00-102.94 48.06l35.9 35.9a479.56 479.56 0 0191.67-59.33z"/><path class="fil1" d="M1996.85 1234.92c0 269.37-218.35 488.02-488.02 488.02-269.37 0-488.02-218.35-488.02-488.02 0-269.67 218.64-488.02 488.02-488.02 269.37 0 488.02 218.35 488.02 488.02z"/><path class="fil2" d="M1102.7 1234.92c0-255.73 196.69-465.47 447.08-486.24-13.35-1.19-27-1.78-40.94-1.78-269.37 0-488.02 218.35-488.02 488.02 0 269.67 218.64 488.02 488.02 488.02 13.65 0 27.29-.59 40.94-1.78-250.39-20.77-447.08-230.51-447.08-486.24z"/><path class="fil2" d="M1020.82 1234.92c0 11.87.3 23.73 1.19 35.6 1.78 0 3.86.3 5.64.3h962.09c1.78 0 3.86 0 5.64-.3a470.5 470.5 0 001.19-35.6c0-37.08-4.15-73.28-12.16-107.99H1033a480.04 480.04 0 00-12.16 107.99z"/><path d="M1687.73 1442.29l-60.82-25.22a306.58 306.58 0 00-235.85 0l-60.82 25.22c-72.68 30.26-153.08-23.14-153.08-102.05 0-61.11 49.54-110.66 110.66-110.66h442.63c61.11 0 110.66 49.54 110.66 110.66-.3 78.91-80.69 132.61-153.38 102.05z" fill="#f7c2ad"/><path class="fil9" d="M1027.64 1229.88h962.09c18.99 0 34.12-16.02 32.63-35.01-4.45-53.1-17.21-104.13-37.38-151a32.33 32.33 0 00-29.96-19.88h-892.37a32.31 32.31 0 00-29.96 19.88 486.54 486.54 0 00-37.38 151 32.51 32.51 0 0032.34 35.01z"/><path class="fil8" d="M1077.19 1194.58c4.45-53.1 17.21-104.13 37.38-151a32.33 32.33 0 0129.96-19.88h-81.88a32.31 32.31 0 00-29.96 19.88 486.54 486.54 0 00-37.38 151c-1.48 18.99 13.65 35.01 32.63 35.01h81.88c-19.28.3-34.41-16.02-32.63-35.01z"/><path class="fil7" d="M936.27 1509.64l-42.13 42.13 29.07 29.07 42.13-42.13a20.59 20.59 0 000-29.07 20.59 20.59 0 00-29.07 0zM984.63 1557.7l-42.13 42.13 29.07 29.07 41.83-42.13a20.59 20.59 0 000-29.07 20.24 20.24 0 00-28.78 0zM2081.41 1509.64a20.59 20.59 0 00-29.07 0 20.59 20.59 0 000 29.07l42.13 42.13 29.07-29.07-42.13-42.13zM2033.05 1557.7a20.59 20.59 0 00-29.07 0 20.59 20.59 0 000 29.07l42.13 42.13 29.07-29.07-42.13-42.13zM1682.68 1353.59a19.88 19.88 0 01-19.88-19.88v-30.85a19.88 19.88 0 1139.76 0v30.85c0 10.98-8.9 19.88-19.88 19.88zM1334.99 1353.59a19.88 19.88 0 01-19.88-19.88v-30.85a19.88 19.88 0 1139.76 0v30.85c0 10.98-8.9 19.88-19.88 19.88z"/></g></g></svg>